<svg width="16" height="20" viewBox="0 0 16 20" fill="none" xmlns="http://www.w3.org/2000/svg">
<path d="M5.12358 16.5898C4.61844 16.5898 4.19253 16.4121 3.84584 16.0567C3.49917 15.7012 3.32584 15.2645 3.32584 14.7465V1.8433C3.32584 1.32536 3.49917 0.888652 3.84584 0.533179C4.19253 0.177726 4.61844 0 5.12358 0H14.2023C14.7074 0 15.1333 0.177726 15.48 0.533179C15.8267 0.888652 16 1.32536 16 1.8433V14.7465C16 15.2645 15.8267 15.7012 15.48 16.0567C15.1333 16.4121 14.7074 16.5898 14.2023 16.5898H5.12358ZM5.12358 15.4839H14.2023C14.382 15.4839 14.5468 15.4071 14.6966 15.2534C14.8464 15.0998 14.9213 14.9309 14.9213 14.7465V1.8433C14.9213 1.65897 14.8464 1.49 14.6966 1.33639C14.5468 1.18279 14.382 1.10599 14.2023 1.10599H5.12358C4.94382 1.10599 4.77903 1.18279 4.6292 1.33639C4.47939 1.49 4.40449 1.65897 4.40449 1.8433V14.7465C4.40449 14.9309 4.47939 15.0998 4.6292 15.2534C4.77903 15.4071 4.94382 15.4839 5.12358 15.4839ZM1.79774 20C1.2926 20 0.866686 19.8223 0.52 19.4668C0.173333 19.1113 0 18.6746 0 18.1567V4.14744H1.07865V18.1567C1.07865 18.341 1.15355 18.51 1.30336 18.6636C1.45317 18.8172 1.61796 18.894 1.79774 18.894H11.9551V20H1.79774Z" fill="#17161E"/>
</svg>
