<svg width="30" height="30" viewBox="0 0 30 30" fill="none" xmlns="http://www.w3.org/2000/svg">
<path d="M12.1526 0.000725457C12.1571 0.000491856 12.1615 -0.000139453 12.166 2.78563e-05C12.2735 0.00406537 12.3916 0.0999934 12.4796 0.155783L12.8275 0.369282L15.1343 1.78195L19.2784 4.31825L22.0535 6.02215L24.6199 7.62727L27.7335 9.55417L28.6642 10.1348C28.8456 10.2452 29.0532 10.3454 29.2194 10.4767C29.3176 10.5545 29.3572 10.6338 29.3703 10.7576C29.4003 11.0402 29.3762 11.3503 29.3767 11.6362L29.3782 13.4418L29.3823 19.2403L29.3857 21.7888C29.3869 22.1941 29.4137 22.6151 29.3909 23.0188C29.388 23.0704 29.3705 23.1108 29.3365 23.1496C29.2645 23.2317 29.1465 23.2883 29.0531 23.3437L28.571 23.6311L25.3743 25.5865L20.4244 28.5839L18.9663 29.4588L18.1952 29.9235C18.0859 29.9836 17.9764 29.9927 17.855 30C17.772 29.9882 17.6983 29.9721 17.6224 29.935C17.4765 29.8638 17.3363 29.7681 17.1975 29.6835L16.5017 29.259L14.4809 28.0159L9.25368 24.8138L8.1314 24.1135L2.74378 20.8275L1.47247 20.0611C1.23797 19.9226 0.959142 19.7898 0.748327 19.6194C0.690831 19.573 0.64311 19.5229 0.622032 19.4503C0.590649 19.3422 0.616648 19.151 0.616787 19.0342L0.61696 17.8571L0.609273 12.2275L0.605308 8.73315L0.605047 7.62317C0.605094 7.44547 0.592574 7.25727 0.607182 7.08055C0.612868 7.01176 0.638647 6.93742 0.673581 6.87823C0.708999 6.81822 0.760425 6.76702 0.817506 6.72769C1.09484 6.53651 1.41454 6.3776 1.70625 6.20748L3.37258 5.2173L9.89427 1.32438L11.4586 0.384517L11.8682 0.140949C11.9599 0.086795 12.0484 0.0271571 12.1526 0.000725457Z" fill="#17161E"/>
<path d="M28.5912 11.4915C28.6139 11.4935 28.6023 11.4897 28.6243 11.5072L28.639 22.7102L18.2001 29.0713L18.1941 17.6565L28.5912 11.4915Z" fill="#E3FE0F"/>
<path d="M1.37575 7.81189L17.4608 17.6526L17.463 28.9847L1.36865 19.108L1.37575 7.81189Z" fill="#E3FE0F"/>
<path d="M12.1441 0.839966L28.3228 10.7776C28.2619 10.84 28.154 10.8823 28.0772 10.9275L27.4588 11.2903L25.2165 12.6085L17.8328 17.0157L1.67212 7.09405C1.80477 6.99265 1.97193 6.91405 2.11655 6.83023L2.72557 6.46487L5.20692 4.98608L12.1441 0.839966Z" fill="#E3FE0F"/>
<path d="M17.4889 11.8373L17.4941 11.8357C17.6673 11.8177 17.8486 11.822 18.0224 11.8256C18.7094 11.8402 19.4755 12.0039 20.0156 12.4565C20.2296 12.6359 20.3927 12.8564 20.4145 13.1434C20.4266 13.304 20.4189 13.4705 20.4185 13.6316C20.418 13.8091 20.4302 14.0024 20.3818 14.1746C20.3516 14.2819 20.2914 14.3761 20.2197 14.4601C19.7813 14.9736 18.9204 15.175 18.2817 15.2278C18.0368 15.2546 17.7704 15.2467 17.5247 15.227C16.8946 15.1765 16.1845 15.0419 15.6783 14.636C15.5089 14.5002 15.36 14.3072 15.3422 14.0827C15.3262 13.8808 15.3378 13.6692 15.3381 13.4662C15.3382 13.3311 15.3223 13.1815 15.3505 13.0493C15.3817 12.903 15.4595 12.7587 15.5542 12.6442C16.0048 12.0999 16.8178 11.8988 17.4889 11.8373Z" fill="#17161E"/>
<path d="M17.5903 12.1714C18.2675 12.1118 19.168 12.2206 19.7162 12.6542C19.858 12.7663 20.053 12.9631 20.0711 13.1507C20.0892 13.3381 20.0372 13.5022 19.9168 13.646C19.5131 14.1284 18.7548 14.2896 18.1603 14.3384C17.4632 14.3666 16.5954 14.2731 16.0275 13.8291C15.8636 13.701 15.689 13.5155 15.6711 13.2968C15.659 13.1488 15.743 12.9663 15.8346 12.8559C16.2394 12.3678 16.9969 12.2316 17.5903 12.1714Z" fill="#E3FE0F"/>
<path d="M11.7489 2.05135C12.5482 1.98135 13.5712 2.12914 14.2128 2.63969C14.4256 2.80902 14.6178 3.04839 14.6456 3.32859C14.6634 3.50786 14.6569 3.69462 14.6576 3.87506C14.6582 4.03198 14.6694 4.21227 14.6288 4.36499C14.5967 4.48574 14.5281 4.60027 14.4487 4.69601C13.9892 5.24987 13.1772 5.42191 12.4968 5.48407C11.6482 5.52015 10.7023 5.42702 10.013 4.87412C9.80544 4.70766 9.59627 4.46721 9.568 4.19146C9.55429 4.05765 9.55976 3.91831 9.55809 3.78367C9.55375 3.43267 9.54822 3.14108 9.79239 2.85763C10.2744 2.29816 11.0456 2.11077 11.7489 2.05135Z" fill="#17161E"/>
<path d="M11.9234 2.36707L11.9398 2.3652C12.6093 2.31877 13.4977 2.49245 14.0193 2.93326C14.165 3.05635 14.3048 3.23019 14.3188 3.42793C14.3306 3.59606 14.2493 3.7592 14.1409 3.88333C13.6834 4.40719 12.9344 4.53252 12.2784 4.58284C11.6061 4.59954 10.826 4.49508 10.2759 4.0751C10.1071 3.94621 9.90487 3.73843 9.88405 3.51676C9.86873 3.35343 9.95764 3.1918 10.0597 3.07163C10.5064 2.54596 11.2757 2.41732 11.9234 2.36707Z" fill="#E3FE0F"/>
<path d="M17.4645 5.58676L17.4872 5.58367C18.283 5.51779 19.2403 5.66568 19.8743 6.18421C20.0925 6.3627 20.3004 6.60801 20.3244 6.90194C20.339 7.08099 20.3273 7.26964 20.3257 7.44954C20.3247 7.57045 20.3378 7.70925 20.3085 7.82659C20.2703 7.97931 20.181 8.13333 20.0773 8.25042C19.581 8.81084 18.754 8.98629 18.0399 9.0243C17.3031 9.07847 16.4349 8.93986 15.8034 8.53778C15.5634 8.38496 15.2874 8.12976 15.2279 7.83533L15.2239 7.81377L15.2083 7.71534C15.1973 7.58822 15.2026 7.45639 15.2016 7.32861C15.199 6.98499 15.2035 6.71603 15.4368 6.44057C15.9277 5.86099 16.7409 5.65492 17.4645 5.58676Z" fill="#17161E"/>
<path d="M17.6208 5.91857L17.6254 5.91806C18.3142 5.87892 19.1496 6.00516 19.6878 6.46873C19.8359 6.59627 19.9772 6.76392 19.9889 6.96766C19.9996 7.15483 19.8926 7.33334 19.7682 7.46656C19.3143 7.95267 18.5534 8.10359 17.9192 8.1262C17.2306 8.13365 16.406 8.01476 15.8587 7.55918C15.7117 7.43679 15.5591 7.24685 15.5448 7.04888C15.5332 6.88839 15.6168 6.73561 15.7199 6.61922C16.1776 6.10248 16.9676 5.96018 17.6208 5.91857Z" fill="#E3FE0F"/>
<path d="M12.0642 8.52298L12.0776 8.52156C12.8847 8.45668 13.8478 8.66288 14.4735 9.19805C14.6804 9.37496 14.8441 9.60875 14.8614 9.88932C14.8702 10.0319 14.862 10.1803 14.8621 10.3234C14.8621 10.4768 14.8758 10.6535 14.8467 10.8045C14.8207 10.9392 14.7224 11.0947 14.6321 11.1946C14.1433 11.7356 13.273 11.9255 12.5756 11.9596C11.7794 12.0039 10.746 11.8741 10.1099 11.3517C9.91953 11.1954 9.75452 10.9917 9.73307 10.7368C9.72108 10.594 9.73042 10.443 9.73206 10.2995C9.73609 9.94454 9.72143 9.66033 9.96711 9.37559C10.4777 8.7837 11.3164 8.57295 12.0642 8.52298Z" fill="#17161E"/>
<path d="M11.9527 8.86973L11.9557 8.86885C12.6664 8.80414 13.5565 8.94108 14.1412 9.37245C14.3093 9.49648 14.5 9.68968 14.5294 9.90563C14.5536 10.0829 14.4751 10.2348 14.3682 10.3688C13.976 10.8607 13.2507 11.0177 12.6605 11.0826C11.9575 11.1554 11.0549 11.0238 10.4761 10.599C10.2862 10.4596 10.1215 10.2722 10.0911 10.0304C10.0702 9.86447 10.1409 9.70082 10.2437 9.57379C10.6272 9.09986 11.3787 8.92586 11.9527 8.86973Z" fill="#E3FE0F"/>
<path d="M6.72044 5.08252C7.52592 5.09912 8.42541 5.24389 9.03273 5.82468C9.19922 5.9839 9.32728 6.20096 9.33143 6.43674L9.32778 6.93741C9.32549 7.29207 9.32835 7.56153 9.06616 7.82973C8.51919 8.38924 7.57973 8.54061 6.83401 8.54901C6.0495 8.55276 5.13165 8.40525 4.53332 7.85426C4.35573 7.69071 4.22141 7.51251 4.21311 7.26129L4.20795 6.7593C4.20641 6.40546 4.20855 6.14395 4.46354 5.86815C5.03089 5.25447 5.92933 5.11715 6.72044 5.08252Z" fill="#17161E"/>
<path d="M6.52207 5.42896C7.17263 5.37024 8.02135 5.50719 8.56492 5.88489C8.74095 6.00719 8.96896 6.22346 8.99855 6.44841C9.01811 6.59709 8.92999 6.77924 8.83504 6.88988C8.42847 7.36359 7.64418 7.49797 7.0562 7.53762C6.443 7.57396 5.76316 7.50763 5.20418 7.23735C5.0815 7.17803 4.95403 7.11357 4.84776 7.02705C4.69237 6.90046 4.55667 6.72179 4.54223 6.51521C4.53208 6.36946 4.62985 6.20183 4.72039 6.09558C5.13266 5.61177 5.92406 5.47271 6.52207 5.42896Z" fill="#E3FE0F"/>
<path d="M22.9964 8.79114C23.8076 8.72655 24.7394 8.89402 25.3888 9.4087C25.5874 9.56613 25.7669 9.80144 25.7936 10.0621C25.8131 10.2534 25.7981 10.4602 25.7977 10.6533C25.7973 10.7929 25.8165 10.968 25.7812 11.1031C25.7465 11.2365 25.6737 11.3647 25.5837 11.4684C25.0751 12.0541 24.2096 12.2173 23.4753 12.2711C22.6423 12.2776 21.6596 12.1792 21.0009 11.6094C20.8286 11.4603 20.6526 11.2353 20.6392 10.999C20.6303 10.8415 20.6361 10.6802 20.6362 10.5224C20.6365 10.1474 20.6296 9.87227 20.8938 9.57232C21.4088 8.98784 22.2594 8.83644 22.9964 8.79114Z" fill="#17161E"/>
<path d="M22.9767 9.12263L22.9902 9.12108C23.1848 9.10378 23.3918 9.11596 23.5861 9.13254C24.1137 9.17752 24.7252 9.30559 25.1421 9.65511C25.3051 9.79177 25.4364 9.96454 25.4514 10.1848C25.4637 10.3665 25.3817 10.5266 25.2651 10.6605C24.8572 11.1288 24.0816 11.2742 23.4978 11.3134C23.0779 11.3528 22.6333 11.2997 22.2259 11.1982C21.9478 11.129 21.6686 11.0342 21.4296 10.8715C21.2611 10.7569 21.0115 10.5113 20.984 10.2991C20.9602 10.1148 21.0269 9.9532 21.1451 9.81348C21.5756 9.30436 22.3505 9.16726 22.9767 9.12263Z" fill="#E3FE0F"/>
</svg>
