<svg width="24" height="30" viewBox="0 0 24 30" fill="none" xmlns="http://www.w3.org/2000/svg">
<path d="M13.6672 0.00905124C13.7362 -0.00319723 13.8168 0.000677529 13.8874 0.000281809C14.1781 -0.0013473 14.4755 0.0557114 14.7419 0.174844C14.8888 0.240511 15.0232 0.342386 15.1594 0.427928L15.9504 0.926741L16.8754 1.50616L17.3943 1.82548C17.5009 1.89862 17.602 1.98363 17.6929 2.07585C17.9729 2.35976 18.1742 2.74056 18.259 3.13127C18.3235 3.42876 18.317 3.7323 18.3158 4.0348L18.3075 5.04397L18.301 7.26477L18.3011 8.53647C18.3024 8.58729 18.3312 8.58944 18.3703 8.61134L19.4379 9.24929L21.7954 10.6545L23.0531 11.4094C23.1601 11.4789 23.2876 11.5454 23.3787 11.6348C23.3923 11.6638 23.3987 11.6826 23.3999 11.7154L23.4001 12.7433L23.3886 15.171L23.3787 21.836C23.1274 22.05 22.8294 22.2248 22.5477 22.3939L21.7106 22.8988L19.2955 24.3629L14.0588 27.5307L10.2219 29.8434L9.97602 30L0.784876 24.5024C0.719784 24.4575 0.621506 24.3746 0.61058 24.291C0.599974 24.2095 0.606355 24.1171 0.606297 24.0344L0.606821 23.558L0.605831 21.9959L0.605918 16.465L0.601315 14.8449L0.601081 14.4775C0.601198 14.4385 0.595575 14.3513 0.609997 14.3163C0.624886 14.2801 0.690094 14.2358 0.721504 14.2145L2.1168 13.3521L4.74415 11.7135L5.48641 11.2512C5.5117 11.2352 5.63698 11.1688 5.64788 11.1485C5.65455 11.1361 5.64835 11.043 5.64841 11.0241L5.65004 10.555L5.65027 8.38065C5.6501 7.97139 5.62993 7.54976 5.66222 7.14232C5.74718 6.0707 6.19355 5.08405 6.84289 4.24461C7.08802 3.92771 7.3918 3.62992 7.71228 3.39114C8.04073 3.1464 8.40911 2.95258 8.7593 2.74126L10.4994 1.68255L12.1416 0.686244C12.4029 0.527343 12.6653 0.33466 12.9392 0.203161C13.1698 0.0924495 13.4155 0.0405133 13.6672 0.00905124Z" fill="#17161E"/>
<path d="M17.9785 10.1653C17.9953 10.1685 17.9858 10.1651 18.0049 10.1796L18.0066 11.1543L16.8157 11.9008L16.7824 11.8893L16.7808 10.9181L17.9785 10.1653Z" fill="white"/>
<path d="M9.66306 15.124L9.67092 16.2125L8.23279 17.1075C8.212 17.1051 8.22291 17.1088 8.20173 17.0923L8.19995 16.0535L9.66306 15.124Z" fill="white"/>
<path d="M14.5755 9.91736L16.2903 10.9544L16.2866 11.9008L14.5742 10.8967L14.5755 9.91736Z" fill="white"/>
<path d="M5.99365 14.876L7.70809 16.0454L7.70978 17.1074L5.99602 15.973L5.99365 14.876Z" fill="white"/>
<path d="M5.72328 11.653C5.73239 11.6562 5.74023 11.6623 5.74835 11.6675L5.74298 13.213L2.60152 15.124C2.54078 15.124 1.93613 14.7424 1.83921 14.6835L1.33545 14.3724C1.4882 14.2502 1.67433 14.1533 1.84138 14.0516L2.76855 13.4848L5.72328 11.653Z" fill="white"/>
<path d="M14.2959 7.19006C14.3173 7.19215 14.3061 7.18875 14.3278 7.20436L14.3292 8.57092L9.95113 11.157L9.91756 11.1491L9.91626 9.76537L14.2959 7.19006Z" fill="white"/>
<path d="M14.3024 4.71082L14.3273 4.71865L14.3292 6.5649L9.93846 9.17362L9.91626 9.15928C9.91718 8.81109 9.91779 8.47737 10.0121 8.13865C10.1587 7.61216 10.4654 7.12484 10.8725 6.75076C11.0296 6.60652 11.2205 6.49976 11.4058 6.39388L11.9956 6.05264L14.3024 4.71082Z" fill="white"/>
<path d="M15.8799 3.7255L15.9434 3.71925C16.0249 3.71652 16.0709 3.7354 16.1292 3.79236C16.2064 3.86767 16.2618 3.98013 16.2748 4.08597C16.3014 4.30125 16.2857 4.53415 16.2862 4.75157L16.288 5.97991L16.289 10.4132L15.4456 9.92308L14.5883 9.42132C14.563 9.32666 14.5797 9.18196 14.579 9.08205L14.5808 8.14694L14.5807 4.47886L15.2778 4.06243C15.4729 3.94492 15.6685 3.81235 15.8799 3.7255Z" fill="white"/>
<path d="M1.09612 14.876L2.31276 15.6229L2.31614 23.2463C2.28317 23.2877 2.22582 23.3175 2.18231 23.3467L1.86866 23.5509L1.09033 24.0495L1.09612 14.876Z" fill="white"/>
<path d="M22.9017 12.1488C22.9164 12.233 22.907 12.3367 22.9061 12.423L22.9009 12.9292L22.8986 14.628L22.8903 21.3224C22.8381 21.3232 22.2374 20.9423 22.1394 20.8832C21.986 20.8145 21.8271 20.697 21.6841 20.6058L21.6864 12.8832L22.9017 12.1488Z" fill="white"/>
<path d="M2.48689 23.5613C2.50016 23.5588 2.51328 23.5524 2.52668 23.5539C2.5347 23.5548 2.56733 23.5791 2.57469 23.5836L2.77286 23.7067L3.89655 24.4105L7.81268 26.8504L9.67093 28.0189L9.6682 29.5041L8.95206 29.0582L1.33545 24.3086L2.48689 23.5613Z" fill="white"/>
<path d="M21.6424 21.0743C21.7758 21.1325 21.9063 21.2261 22.0313 21.3017C22.3218 21.4775 22.6075 21.6582 22.9098 21.8132L10.9709 29.0214L10.1614 29.5041L10.164 28.0711L21.6424 21.0743Z" fill="white"/>
<path d="M14.1865 9.17346C14.1998 9.17757 14.1906 9.17414 14.212 9.18812C14.2133 9.30252 14.2288 9.42146 14.1693 9.5229C14.1504 9.55514 14.133 9.58129 14.1289 9.61945C14.1063 9.83339 14.1277 10.0753 14.127 10.2917L14.126 10.7971C14.1261 10.8717 14.1175 10.9593 14.1307 11.0325C14.1388 11.077 14.1576 11.1022 14.1908 11.1307C14.3658 11.2811 14.6176 11.3922 14.8163 11.5107L16.0453 12.2646L11.2571 15.2207L10.1866 15.8677L10.1704 14.7531C10.094 14.6734 10.0079 14.6174 9.91626 14.5576L9.91902 11.8251C9.92121 11.8164 9.92425 11.8074 9.93018 11.8007C9.96935 11.757 10.0775 11.7083 10.1298 11.6755L10.9192 11.1878L14.1865 9.17346Z" fill="white"/>
<path d="M16.1892 1.98879C16.2409 1.98026 16.3012 1.98448 16.3536 1.98418C16.7501 1.98188 17.1516 2.14043 17.4322 2.42151C17.722 2.71181 17.8931 3.11958 17.9659 3.51972C18.0228 3.83273 18.0039 4.15113 18.0024 4.46793L17.9969 5.63717L17.9924 9.57944L16.8486 10.3088L16.843 8.845L16.8424 5.95863L16.8435 4.91303C16.8442 4.55883 16.8991 4.14031 16.771 3.80556C16.6924 3.60003 16.5733 3.43935 16.3674 3.34912C16.1751 3.26484 15.9712 3.28283 15.7803 3.36034C15.6127 3.42842 15.459 3.54278 15.3047 3.63694L14.535 4.09968L12.2602 5.47118L11.4233 5.97487C11.1622 6.13212 10.8984 6.27292 10.6695 6.47801C10.2504 6.85338 9.95518 7.32104 9.74484 7.83878C9.66116 8.082 9.59314 8.32239 9.56629 8.57908C9.53625 8.86588 9.54438 9.15638 9.54418 9.44435L9.54444 10.6593L9.55484 14.6897L8.46111 15.3718L8.45482 15.3442C8.43317 15.2075 8.4552 15.025 8.45566 14.8833L8.4563 13.7466L8.45796 10.365L8.45557 9.33339C8.45397 8.9164 8.454 8.51669 8.53775 8.10535C8.68083 7.4024 9.00681 6.75484 9.44761 6.19226C9.68309 5.89176 9.98455 5.58059 10.292 5.35401C10.5507 5.16333 10.8538 5.01147 11.1302 4.84574L12.7483 3.86754L14.5216 2.79234L15.1441 2.4157C15.2849 2.33017 15.4239 2.23745 15.5712 2.16368C15.772 2.0631 15.9678 2.01602 16.1892 1.98879Z" fill="white"/>
<path d="M13.8623 0.495865C14.0597 0.495108 14.2692 0.522719 14.4547 0.593166C14.665 0.673046 14.8629 0.818689 15.0545 0.936686L16.0453 1.54282C15.7838 1.58998 15.5389 1.64341 15.297 1.75782C15.0843 1.85841 14.8819 2.00447 14.6788 2.12501L13.2326 2.99439L11.2006 4.22441L10.5067 4.64016C10.2872 4.76873 10.0661 4.89103 9.86184 5.04387C9.67695 5.18228 9.50417 5.34744 9.34031 5.50988C8.69516 6.1495 8.2015 7.00717 7.98564 7.8882C7.83769 8.49208 7.85473 9.08098 7.85532 9.69641L7.8565 11.1524L7.85411 15.303L7.85561 15.6198L5.99391 14.5065L5.99506 10.0784L5.9948 8.41403C5.9948 7.79371 5.97339 7.1841 6.11561 6.57527C6.29956 5.78785 6.71317 5.03633 7.2471 4.4305C7.4608 4.188 7.70453 3.9586 7.97029 3.7736C8.28886 3.55183 8.6421 3.36081 8.97671 3.16255L10.7859 2.08524L12.5357 1.0344C12.746 0.909399 12.9474 0.750415 13.1692 0.649352C13.391 0.548298 13.6209 0.511517 13.8623 0.495865Z" fill="white"/>
<path d="M18.3491 9.17346L22.9096 11.8356L9.89794 19.5867L5.71972 17.1357L2.8064 15.4381L5.56425 13.7899L5.56522 14.3163C5.52119 14.3518 5.48178 14.3859 5.46216 14.4403C5.42452 14.5446 5.44926 14.729 5.44921 14.8418L5.44797 15.8097C5.44794 15.8964 5.42441 16.0854 5.46635 16.1596C5.48446 16.1917 5.51214 16.2155 5.54239 16.236C5.65808 16.3146 5.79383 16.3764 5.91511 16.4489L7.46857 17.3638C7.61392 17.4474 7.80521 17.5955 7.96561 17.6333C8.10079 17.5802 8.22075 17.4973 8.34309 17.4208L8.74915 17.1759L10.969 15.8319L16.4786 12.5557L17.8292 11.7473C18.004 11.6423 18.2368 11.5368 18.3869 11.4019C18.4499 11.3453 18.4606 11.2916 18.4621 11.2097L18.4643 10.1674C18.4643 10.0072 18.4867 9.80472 18.454 9.64974C18.4403 9.58497 18.407 9.54506 18.3609 9.4988L18.3479 9.486L18.3491 9.17346Z" fill="white"/>
<path d="M10.0163 17.8516C10.0968 17.8487 10.1762 17.8632 10.2489 17.8972C10.3068 17.9243 10.3809 17.9812 10.3994 18.0435C10.4136 18.0913 10.407 18.1489 10.3791 18.1913C10.312 18.2932 10.187 18.3265 10.0722 18.347C9.95886 18.3482 9.83972 18.3282 9.74971 18.256C9.70544 18.2205 9.67742 18.1735 9.67209 18.1178C9.66679 18.0622 9.68372 18.0124 9.72128 17.9699C9.7961 17.8854 9.90832 17.8633 10.0163 17.8516Z" fill="#17161E"/>
<path d="M20.076 11.413C20.2157 11.3963 20.3498 11.4019 20.4802 11.464C20.5634 11.5036 20.6566 11.5692 20.6876 11.6683C20.7126 11.7486 20.7091 11.8292 20.6709 11.9037C20.6043 12.0337 20.4885 12.0927 20.3661 12.1361C20.2249 12.1635 20.0728 12.1474 19.9434 12.0771C19.8594 12.0315 19.7645 11.95 19.7363 11.8469C19.7178 11.7796 19.7155 11.7105 19.7485 11.6488C19.8186 11.5173 19.9486 11.4523 20.076 11.413Z" fill="#17161E"/>
<path d="M2.56128 15.8678L9.67096 20.1275L9.66027 27.4983L9.63322 27.5207L2.57425 23.3025L2.56128 15.8678Z" fill="white"/>
<path d="M21.4042 13.1405L21.4288 13.1424C21.4432 13.2027 21.4369 13.2693 21.437 13.3312L21.4373 13.6946L21.4382 15.0023L21.4388 20.6742L10.2002 27.5207L10.1635 27.5125L10.1614 20.037C10.2142 19.9792 10.3138 19.9327 10.3818 19.8901L10.8563 19.5927L12.4959 18.5802L17.7543 15.3489L21.4042 13.1405Z" fill="white"/>
<path d="M16.3979 16.8676L16.6186 16.8595C16.9251 16.8686 17.2101 17.0133 17.4188 17.2527C17.9379 17.8483 17.7737 18.8245 17.536 19.5124C17.4535 19.751 17.3136 19.9989 17.2644 20.246C17.2299 20.419 17.247 20.637 17.246 20.8153L17.2373 22.0621L14.9907 23.547C14.8784 23.6266 14.7247 23.7614 14.5957 23.7965C14.542 23.8111 14.4867 23.7931 14.4427 23.7594C14.3984 23.7254 14.3679 23.6779 14.3555 23.6209C14.3289 23.4985 14.3474 23.3384 14.3474 23.2114L14.3483 22.1324C14.3481 21.9656 14.3639 21.7767 14.3396 21.612C14.3245 21.5098 14.1321 21.3489 14.0724 21.2513C13.9568 21.0621 13.8931 20.8461 13.861 20.6243C13.7415 19.7977 14.1233 18.8124 14.5777 18.1599C15.032 17.5077 15.6258 16.9881 16.3979 16.8676Z" fill="#17161E"/>
<path d="M16.5144 17.362L16.683 17.3553C16.888 17.3557 17.0791 17.4431 17.2223 17.5844C17.7076 18.063 17.494 18.9404 17.2768 19.4968C17.1799 19.7451 17.0303 20.0022 16.9843 20.2654C16.9489 20.4676 16.9635 20.6852 16.9624 20.89L16.9577 21.9016L14.9384 23.1256L14.6412 23.3058L14.6419 22.2408C14.6415 22.0564 14.6605 21.8472 14.6319 21.6656C14.621 21.5968 14.5972 21.525 14.5653 21.4625C14.4903 21.3154 14.3653 21.2073 14.2689 21.0754C14.1885 20.9655 14.1333 20.8179 14.1101 20.6849C13.9828 19.9545 14.3404 19.1214 14.7644 18.5363C15.1847 17.9563 15.7828 17.4873 16.5144 17.362Z" fill="white"/>
</svg>
