<svg width="33" height="28" viewBox="0 0 33 28" fill="none" xmlns="http://www.w3.org/2000/svg">
<path d="M10.7796 0.807337C10.5907 0.786997 10.4475 0.806652 10.2797 0.899159C10.1331 0.980038 9.99442 1.08469 9.85688 1.17992L9.10649 1.70297L6.44657 3.51999L3.61303 5.44688L2.86024 5.97583L1.24184 7.0785C0.942646 7.28224 0.625957 7.47605 0.341221 7.69838C0.292076 7.73676 0.2435 7.77753 0.227173 7.83936L0.223141 7.85665C0.188854 7.9958 0.20858 8.17074 0.208214 8.3159L0.207348 9.2618L0.205051 12.7194C0.205849 12.7739 0.198917 12.8619 0.22744 12.908C0.259792 12.9604 0.30677 13.0001 0.357113 13.0354L2.96412 14.8166L4.3344 15.7722L12.7382 21.4985L18.887 25.6929L20.8345 27.0109L21.7837 27.6582C21.8888 27.7243 21.9914 27.7623 22.1118 27.7928C22.2611 27.8096 22.406 27.7996 22.5453 27.7385C22.7 27.6706 22.843 27.5448 22.9838 27.4507L23.9615 26.8024L26.9753 24.7845L30.3865 22.5095L31.6299 21.6844C31.8404 21.5458 32.073 21.4179 32.2709 21.2633C32.4268 21.1415 32.5317 20.9774 32.6 20.7956C32.6389 20.6919 32.6677 20.5886 32.6725 20.4776L32.6688 19.6278L32.6687 17.9103L32.6727 16.6942C32.6739 16.4771 32.6865 16.2524 32.6721 16.0361C32.6639 15.9138 32.6305 15.794 32.5757 15.6837C32.5036 15.5384 32.3947 15.4377 32.2624 15.3447L30.7377 14.3117L27.3067 11.9906L16.8538 4.89185L13.0744 2.31247L11.8078 1.44435L11.3146 1.10566C11.1396 0.985583 10.9847 0.873525 10.7796 0.807337Z" fill="#17161E"/>
<path d="M32.2276 16.0317C32.0663 16.0903 31.8959 16.2027 31.7747 16.3223C31.744 16.3526 31.6872 16.4157 31.6732 16.4544C31.6502 16.518 31.6633 16.6262 31.6631 16.6951L31.6629 17.2528C31.7421 17.2444 31.813 17.2454 31.8878 17.2744C31.9233 17.3092 31.9469 17.3342 31.9533 17.3845C31.9739 17.5443 31.9578 17.7265 31.9573 17.8884C31.957 18.0075 31.9727 18.158 31.9432 18.2725C31.9348 18.305 31.915 18.3331 31.8938 18.3588C31.8475 18.4149 31.778 18.4794 31.7014 18.4841C31.6453 18.4875 31.5974 18.4741 31.5574 18.4342C31.5308 18.4076 31.5089 18.3671 31.5017 18.3305C31.4867 18.254 31.4965 18.1583 31.4965 18.0798L31.4992 17.5503L24.9156 22.0659L23.2024 23.243C23.1664 23.2682 22.9441 23.4038 22.9341 23.4303C22.9249 23.4548 22.9347 23.5339 22.9349 23.5649L22.9368 23.9776L22.9377 25.8154C22.9372 26.1022 22.9569 26.4056 22.9333 26.6908C22.9309 26.7198 22.9228 26.7455 22.9046 26.7686C22.8653 26.8186 22.796 26.8428 22.7336 26.8466C22.6622 26.851 22.5848 26.8199 22.5357 26.7691C22.5096 26.7423 22.4893 26.7115 22.4844 26.6742C22.4718 26.5789 22.4804 26.4721 22.4801 26.3754L22.4787 25.8102L22.4744 23.9029L22.4719 23.7202L21.9303 24.1094L21.9204 26.249V26.7994C21.9206 26.8978 21.9123 27.0065 21.9294 27.1035C21.9404 27.1657 21.9746 27.2243 22.0196 27.2691C22.0777 27.3269 22.1599 27.336 22.2393 27.3369C22.307 27.3378 22.3596 27.3201 22.4182 27.2879C22.5235 27.23 22.6239 27.15 22.7228 27.0817L23.263 26.7184L25.8587 24.9857L30.4374 21.9315L31.6661 21.1237C31.8051 21.0304 31.9781 20.9401 32.0974 20.8246C32.1721 20.7522 32.2131 20.6431 32.2278 20.5426C32.2517 20.3785 32.2372 20.1932 32.2365 20.027L32.2321 19.0599L32.2276 16.0317Z" fill="white"/>
<path d="M31.8089 18.9613C31.7817 18.9574 31.7525 18.9555 31.7253 18.9613C31.66 18.9752 31.5801 19.0469 31.5441 19.0995C31.5233 19.1298 31.5113 19.1615 31.5069 19.1977C31.4842 19.382 31.5004 19.5818 31.5004 19.7683C31.5003 19.9858 31.4794 20.2237 31.5147 20.437C31.5497 20.4953 31.5862 20.5079 31.6486 20.5332C31.6886 20.5339 31.7293 20.5341 31.767 20.5195C31.8456 20.4891 31.9126 20.4018 31.9429 20.3266C31.9745 20.2481 31.9766 19.1313 31.9401 19.0658C31.907 19.0063 31.8731 18.983 31.8089 18.9613Z" fill="#17161E"/>
<path d="M30.247 18.7983C30.1893 18.8 30.1591 18.8084 30.1101 18.8383C29.7675 19.0465 29.4417 19.2987 29.1114 19.5265L27.0627 20.9333L25.128 22.262L24.3308 22.8121C24.1372 22.9461 23.9395 23.0742 23.7588 23.2248C23.7277 23.3653 23.7502 23.5563 23.7494 23.7015L23.7441 24.892L23.7399 25.4787C23.7389 25.5747 23.7269 25.6831 23.7432 25.777C23.7552 25.846 23.7888 25.8511 23.8461 25.8875L23.9414 25.9026C23.9843 25.8915 24.0126 25.8773 24.0495 25.8531L26.4702 24.2226L28.9104 22.5947L29.788 22.0122C29.9704 21.8943 30.1866 21.7884 30.3418 21.6387C30.3664 21.5097 30.3506 21.3518 30.3505 21.2198L30.3498 20.3924L30.3497 19.4611C30.3508 19.2626 30.3658 19.0611 30.3437 18.8636C30.3101 18.8188 30.2983 18.8176 30.247 18.7983Z" fill="#17161E"/>
<path d="M25.4491 22.4316L25.1812 22.65L25.1815 24.6966L25.432 24.511C25.4691 24.465 25.4501 22.6373 25.4491 22.4316Z" fill="white"/>
<path d="M28.8916 20.0658C28.8011 20.1175 28.7161 20.1867 28.6317 20.2479L28.6281 22.3936L28.8943 22.2164L28.8916 20.0658Z" fill="white"/>
<path d="M27.1646 21.2408L26.8902 21.4499L26.8946 23.574L27.1611 23.3814L27.1646 21.2408Z" fill="white"/>
<path d="M0.660072 9.99329L0.661402 12.7L21.4588 26.8882L21.4702 24.168C21.3337 24.0487 21.1375 23.9463 20.9854 23.8417L19.5076 22.8443L14.4099 19.3711L9.84628 16.2546L7.79992 14.8353L5.47388 13.2585L1.82987 10.7742L0.660072 9.99329Z" fill="white"/>
<path d="M2.9331 13.3029C2.88579 13.2943 2.84661 13.2943 2.80096 13.3096C2.73369 13.3321 2.69737 13.3784 2.66666 13.4387C2.63963 13.4918 2.63327 13.5553 2.65649 13.6112C2.67179 13.648 2.69931 13.6734 2.73046 13.6977C2.90648 13.8351 3.10742 13.9529 3.29107 14.0826L5.40934 15.521L6.38669 16.1871C6.52536 16.2808 6.6575 16.3953 6.80997 16.4663C6.83512 16.4754 6.85375 16.4786 6.8811 16.4787C6.94234 16.479 6.99861 16.4344 7.03723 16.3918C7.0928 16.3305 7.09177 16.2671 7.08914 16.1891C7.05812 16.1175 7.01114 16.0801 6.94907 16.0349L5.44632 15.0203L3.82223 13.9096L3.29284 13.5409C3.18065 13.4603 3.06244 13.3548 2.9331 13.3029Z" fill="#17161E"/>
<path d="M10.6652 1.23623L10.6374 1.23108C10.4337 1.30795 10.2253 1.48654 10.0427 1.60671L7.9883 3.0104L2.68489 6.63414L0.649248 8.02642L0.657076 9.41686C0.747135 9.5237 0.954975 9.62891 1.07322 9.70982L2.02679 10.3658L6.26029 13.2391L10.7961 16.3568L18.2937 21.4658L21.676 23.76L21.7779 23.6825L24.199 22.0104L28.8142 18.8411L30.9848 17.3445C31.0414 17.3036 31.1601 17.2455 31.1985 17.1968C31.2039 17.1899 31.1975 17.0644 31.1974 17.0481C31.1962 16.8662 31.1731 16.6478 31.2214 16.4708C31.3248 16.0922 31.591 15.8618 31.9241 15.669C31.4435 15.303 30.9203 14.9748 30.4178 14.6373L28.0313 13.0254L23.8081 10.1465L19.619 7.3167L13.8109 3.35362L12.0083 2.1218C11.5755 1.82225 11.1324 1.48018 10.6652 1.23623Z" fill="white"/>
<path d="M10.6743 2.31421L7.7181 4.30633L5.05302 6.13252L3.28992 7.34359C3.00862 7.53702 2.70139 7.72096 2.43401 7.93085C2.40159 7.95626 2.36588 7.98939 2.34975 8.02778C2.24826 8.26931 2.52807 8.37983 2.69073 8.48961L7.84448 12.0388L11.6529 14.6694L12.8817 15.5102C12.9444 15.5553 13.0561 15.6217 13.0845 15.6903C13.0477 15.7107 13.0188 15.7258 12.9902 15.7571C13.0436 16.0432 13.1269 16.3272 13.2001 16.6093C13.2267 16.7121 13.2498 16.8764 13.3065 16.9637C13.6134 17.147 13.9024 17.3656 14.1979 17.5663L15.8872 18.7165L19.985 21.4998L20.8654 22.0995C20.9342 22.146 21.073 22.2763 21.1547 22.2749L21.7384 22.2774L22.2316 22.2806L27.5513 18.6449L29.4408 17.3519C29.6797 17.1841 29.9513 17.0325 30.1595 16.8296C30.1926 16.6648 30.1766 16.4826 30.1763 16.315C30.1758 16.0673 30.1829 15.8173 30.1652 15.5702C30.0369 15.4328 29.851 15.3295 29.694 15.2245L28.9263 14.7096L24.8773 11.9654L15.3538 5.48535L12.2475 3.37201L10.6743 2.31421Z" fill="#17161E"/>
<path d="M7.73393 4.84082L7.32465 5.12198L17.929 12.3543C18.0684 12.2808 18.2071 12.1742 18.3342 12.0822L7.73393 4.84082Z" fill="white"/>
<path d="M8.5586 4.29028L8.1298 4.57715L18.7302 11.7987C18.8721 11.734 19.0199 11.6161 19.147 11.5262L8.5586 4.29028Z" fill="white"/>
<path d="M4.20134 7.28592L4.18008 7.28113C4.07846 7.29783 3.87142 7.48127 3.78276 7.5466L14.3032 14.8086L14.7283 14.5077L4.20134 7.28592Z" fill="white"/>
<path d="M3.40508 7.85671L3.35087 7.84546L2.93906 8.13376L13.4463 15.3368C13.4643 15.3509 13.4749 15.3548 13.4962 15.3619L13.8804 15.0813L3.40508 7.85671Z" fill="white"/>
<path d="M6.91406 5.41443C6.83936 5.45066 6.76606 5.50894 6.69702 5.55577L6.234 5.87495L5.15196 6.61357L4.60071 6.9911L15.1349 14.2584L17.52 12.6239L6.91406 5.41443Z" fill="white"/>
<path d="M10.7027 2.86694L10.6642 2.85986L8.97136 4.00764C9.05602 4.11131 9.25563 4.21502 9.37031 4.29519L10.7951 5.27553L16.0999 8.89724L18.3578 10.4362L19.3407 11.1006C19.4547 11.1789 19.662 11.2903 19.7336 11.4045C19.7662 11.4565 19.7709 11.5108 19.7546 11.569C19.7364 11.6343 19.6971 11.6801 19.6425 11.72L18.0433 12.8021L15.1966 14.7422L14.0708 15.4941C13.8815 15.6219 13.6945 15.7761 13.4899 15.8781L13.4692 15.8883C13.5018 16.0089 13.6404 16.6289 13.6997 16.6809C13.7919 16.7617 13.9152 16.83 14.0175 16.9005L14.7803 17.4194L17.0122 18.9302L20.4651 21.2874L21.0979 21.7181C21.1468 21.7508 21.228 21.8214 21.2798 21.839C21.3058 21.8478 21.3732 21.8396 21.4026 21.8398L21.709 21.8418C21.8078 21.8437 21.9739 21.8698 22.0653 21.8486C22.1329 21.833 22.2486 21.7292 22.3102 21.6862L23.0037 21.2061L27.3293 18.2542L29.7208 16.6191L29.7251 15.7868L10.7027 2.86694Z" fill="white"/>
<path d="M22.1281 12.7797C20.8375 12.6825 19.4321 13.0598 18.4424 13.8858C17.7794 14.439 17.3025 15.2048 17.2404 16.0672C17.1826 16.8709 17.4734 17.601 18.0048 18.2063C18.8603 19.1809 20.1857 19.6791 21.4716 19.7721L21.4933 19.7742C21.8072 19.8021 22.131 19.7859 22.4437 19.7528C23.4175 19.6497 24.4246 19.3034 25.1839 18.6839C25.8268 18.1593 26.3275 17.4439 26.3964 16.607C26.4652 15.7712 26.1518 14.9693 25.5964 14.3402C24.7252 13.3537 23.433 12.8703 22.1281 12.7797Z" fill="#17161E"/>
<path d="M22.1267 13.823C21.6729 13.7964 21.2611 13.8421 20.8148 13.9227C20.9845 14.2307 21.1222 14.5569 21.2761 14.8731C21.315 14.953 21.3622 15.1024 21.426 15.1571L21.4882 15.1462C21.723 15.1042 21.9255 15.1375 22.1576 15.1415L22.8518 13.944L22.1267 13.823Z" fill="white"/>
<path d="M22.1856 17.5311C21.9526 17.5705 21.7356 17.5709 21.5028 17.5348L20.7945 18.8492L21.3804 18.9341C21.8577 19.0042 22.3426 18.943 22.8103 18.8445L22.1856 17.5311Z" fill="white"/>
<path d="M23.3853 14.1183L23.325 14.1096C23.2207 14.2375 23.1382 14.3928 23.0531 14.5337L22.6013 15.2937C22.831 15.4127 22.9837 15.5392 23.1589 15.7252L23.7944 15.4972L24.8042 15.1243C24.7194 15.0293 24.6399 14.9283 24.5477 14.8399C24.2173 14.5234 23.8179 14.276 23.3853 14.1183Z" fill="white"/>
<path d="M18.5897 15.5858L18.5478 15.5908C18.3591 16.1176 18.368 16.6838 18.6158 17.19L19.6683 16.8002L20.2585 16.5984C20.2201 16.4448 20.2262 16.2704 20.2519 16.1152L20.2568 16.0865L18.5897 15.5858Z" fill="white"/>
<path d="M20.3499 14.0546C19.7112 14.2865 19.1592 14.6034 18.7648 15.1639L19.6759 15.4299C19.7728 15.46 20.433 15.6879 20.4641 15.678C20.5069 15.6644 20.6284 15.5291 20.6702 15.4943C20.7649 15.4153 20.8639 15.3648 20.9771 15.3158L20.3499 14.0546Z" fill="white"/>
<path d="M23.1042 17.0129C22.9718 17.16 22.8123 17.2663 22.6408 17.3646C22.6382 17.4285 22.7243 17.5722 22.7527 17.6347L23.2519 18.6979L23.5776 18.5641C23.7226 18.4967 23.8592 18.4147 23.995 18.3313C24.3357 18.1148 24.6132 17.8556 24.8594 17.539L23.1042 17.0129Z" fill="white"/>
<path d="M25.0759 15.4857L23.3882 16.1264C23.4033 16.3041 23.3895 16.4623 23.3586 16.6378L23.9211 16.7996L25.0957 17.1624L25.1098 17.1418C25.1493 17.0726 25.1737 16.9698 25.1966 16.8933C25.344 16.4007 25.2467 15.9549 25.0759 15.4857Z" fill="white"/>
<path d="M20.4762 16.9918L18.8146 17.5747C19.0712 17.9272 19.3581 18.1854 19.7281 18.4211L20.3443 18.724L21.0757 17.4019C20.838 17.3003 20.6526 17.1782 20.4762 16.9918Z" fill="white"/>
<path d="M21.9711 15.5511C21.6518 15.5394 21.3917 15.5727 21.1093 15.7282C20.92 15.8324 20.7467 15.9854 20.6946 16.2016C20.6607 16.3422 20.6921 16.5148 20.7707 16.6356C20.9577 16.9233 21.2891 17.0615 21.6178 17.1258C21.9502 17.1766 22.3179 17.0853 22.5901 16.8925C22.7552 16.7755 22.9022 16.5944 22.9318 16.393C22.9549 16.2363 22.89 16.0844 22.7918 15.9632C22.5899 15.714 22.2861 15.5891 21.9711 15.5511Z" fill="white"/>
<path d="M22.2171 13.2228C21.6845 13.1774 21.1155 13.222 20.5922 13.3234C19.6205 13.5119 18.6558 14.0666 18.1032 14.8847C17.7278 15.4406 17.6083 16.1384 17.7467 16.7863C17.9176 17.5866 18.4783 18.1418 19.152 18.5754L19.1679 18.565C18.9643 18.3996 18.7723 18.2323 18.6096 18.026C18.1602 17.4564 17.8758 16.741 17.9803 16.0125C18.0938 15.2213 18.5604 14.6169 19.2 14.1432C19.4544 13.9547 19.7519 13.8227 20.0494 13.7144C20.8178 13.4348 21.6581 13.3307 22.471 13.444L23.0968 13.571C24.0144 13.8224 24.9373 14.3886 25.4099 15.2179C25.7161 15.7553 25.8188 16.3708 25.6432 16.9676C25.3751 17.8784 24.6269 18.5018 23.8082 18.9425V18.9607C24.2306 18.7807 24.6249 18.5545 24.98 18.2656C25.5183 17.8278 25.8771 17.2509 25.9406 16.5627C26.0038 15.8767 25.7502 15.2056 25.298 14.6844C24.5243 13.7926 23.3935 13.3181 22.2171 13.2228Z" fill="white"/>
</svg>
