<svg width="27" height="30" viewBox="0 0 27 30" fill="none" xmlns="http://www.w3.org/2000/svg">
<path d="M8.66909 0.00643143C8.5347 -0.00755328 8.39472 0.000923157 8.26385 0.0352538C8.18845 0.055029 8.10775 0.0825611 8.0414 0.124112L7.34113 0.610041L5.01886 2.18142L3.35568 3.28306C3.09945 3.45383 2.82899 3.61787 2.58416 3.80508C2.51111 3.86094 2.45714 3.94614 2.42262 4.03105C2.34737 4.21637 2.35379 4.39812 2.3548 4.59463L2.35743 5.10461L2.35911 6.2767C2.35872 6.31532 2.37119 6.46239 2.35648 6.49142C2.34844 6.5073 2.24653 6.56328 2.22399 6.57845L1.63061 6.98518C1.38988 7.14875 1.08167 7.29716 0.930981 7.55843C0.868481 7.66683 0.816225 7.79874 0.808184 7.92447C0.786871 8.25729 0.814449 8.60643 0.814297 8.9413L0.811178 10.9319L0.812525 11.5474C0.813412 11.6723 0.805368 11.8111 0.838423 11.9319C0.956114 12.362 1.23639 12.5358 1.58918 12.7652L2.20669 13.1761C2.23078 13.1934 2.3408 13.262 2.34811 13.2792C2.35382 13.2926 2.34679 13.3579 2.34657 13.3756L2.34581 13.6917L2.34025 15.9076L2.33866 16.6029C2.33908 16.7757 2.33603 16.9597 2.36651 17.1302C2.4964 17.8566 2.9317 18.5742 3.45891 19.0737C3.70285 19.3049 3.9715 19.4757 4.24636 19.6637L5.29255 20.372L8.08039 22.2712L14.2971 26.5051L18.96 29.6783C19.1968 29.8333 19.4293 29.9271 19.7073 29.975C19.9892 30.0235 20.36 30.0054 20.6246 29.885C20.7605 29.8231 20.8769 29.7006 20.9984 29.6128L21.7798 29.0709L25.2994 26.6489C25.4028 26.577 25.5249 26.5397 25.6392 26.4894C25.7496 26.4408 25.8561 26.3788 25.9538 26.3076C26.2768 26.0725 26.5097 25.7268 26.5737 25.3259C26.609 25.1045 26.5929 24.8658 26.5934 24.6417L26.5949 23.5325L26.5966 19.429L26.5969 15.3597L26.5968 14.1359C26.5967 13.9019 26.6105 13.6571 26.5821 13.4247C26.5142 12.8688 26.3014 12.3522 25.9789 11.8998C25.7977 11.6457 25.5984 11.393 25.349 11.2048L24.5162 10.634L23.3062 9.81059L18.3473 6.44288L12.3378 2.36102L10.4433 1.06951L9.1378 0.18398C8.9884 0.0892045 8.84319 0.0349839 8.66909 0.00643143Z" fill="#17161E"/>
<path d="M2.36499 7.75635C2.25127 7.80219 2.13701 7.89917 2.04301 7.97838L2.1582 8.08049L2.36371 8.22905L2.36499 7.75635Z" fill="#E3FE0F"/>
<path d="M2.37279 6.98633L1.7663 7.3863C1.58072 7.51517 1.27899 7.68259 1.23884 7.92463C1.21037 8.09623 1.27933 8.243 1.39601 8.36408C1.51174 8.48417 1.66772 8.57709 1.80498 8.67011L2.54601 9.16644L5.89313 11.421L6.92058 12.1166C7.08448 12.2294 7.25938 12.3371 7.41214 12.4651C7.59753 12.6204 7.76481 12.8103 7.90544 13.0077C8.31144 13.5776 8.62012 14.32 8.50454 15.0341C8.49808 15.073 8.48778 15.1099 8.5009 15.1484L8.52548 15.1289C8.69702 14.9879 8.77673 14.756 8.79288 14.5393C8.85024 13.7697 8.34789 12.9587 7.83309 12.438C7.62391 12.2265 7.36395 12.0858 7.11728 11.9253L6.41065 11.454L2.95556 9.12702L2.27739 8.68335C2.08656 8.55817 1.87949 8.43331 1.73239 8.25438C1.66016 8.16655 1.61436 8.06596 1.63102 7.94966C1.67811 7.62142 2.13077 7.4135 2.37466 7.24543L2.37279 6.98633Z" fill="#E3FE0F"/>
<path d="M2.81657 17.1641C2.8692 17.3896 2.94038 17.6103 3.04336 17.8174C3.26343 18.2602 3.56779 18.6373 3.95355 18.9422C4.23712 19.1662 4.5498 19.3594 4.84793 19.5631L6.5423 20.7162L11.7734 24.2684L17.0041 27.8264L18.5998 28.9091C18.8875 29.1017 19.1968 29.3696 19.5245 29.4772C19.8777 29.5932 20.2239 29.5923 20.5585 29.4209L20.594 29.3968C20.5951 29.3958 20.6188 29.3698 20.6203 29.3656C20.632 29.3329 20.6211 29.2542 20.6214 29.2147L20.6274 28.7541C20.3993 28.8218 20.1588 28.8562 19.9215 28.8223C19.7015 28.7909 19.4794 28.7071 19.2897 28.591L18.3827 27.9813L16.5656 26.7494L12.386 23.9174L11.4046 23.2391L6.59844 19.968L4.36744 18.4573C4.10744 18.2787 3.82809 18.115 3.57678 17.9253C3.29394 17.7118 3.02667 17.452 2.81657 17.1641Z" fill="#E3FE0F"/>
<path d="M1.22156 8.78137C1.20223 8.95617 1.21768 9.15299 1.21752 9.32997L1.21707 10.4482L1.21762 11.3504C1.21777 11.4834 1.20306 11.6341 1.22217 11.7642C1.24165 11.8966 1.29219 12.0184 1.38891 12.1113C1.51366 12.2313 1.6919 12.3225 1.83582 12.4197L2.80573 13.0776L5.63515 15.0075L7.16923 16.0639C7.3629 15.9895 7.55948 15.8558 7.72185 15.726C7.76774 15.6822 7.80912 15.6376 7.84734 15.5869C8.07217 15.2886 8.15237 14.8939 8.10104 14.5253C8.02297 13.9644 7.7486 13.4108 7.36936 12.9977C7.14379 12.752 6.89107 12.6066 6.62006 12.4217L5.69285 11.795L2.55169 9.67855L1.75782 9.13975C1.57751 9.02081 1.39417 8.91235 1.22156 8.78137Z" fill="#E3FE0F"/>
<path d="M6.03733 12.9225C5.93318 12.9108 5.80727 12.9055 5.71086 12.952C5.61255 12.9994 5.53134 13.1033 5.49651 13.2066C5.42196 13.4281 5.50553 13.7086 5.60231 13.9113C5.7315 14.1818 5.9389 14.4062 6.22317 14.5049C6.33704 14.5067 6.4304 14.4926 6.53537 14.4458C6.65975 14.3903 6.73164 14.297 6.77757 14.1681C6.85315 13.9559 6.79041 13.7028 6.69177 13.5085C6.55209 13.2335 6.3283 13.017 6.03733 12.9225Z" fill="#17161E"/>
<path d="M25.0919 13.7445L23.3202 14.8588L23.3362 27.4825L25.158 26.2034L25.1542 17.4443L25.1528 15.2465C25.1521 14.7551 25.1937 14.2256 25.0919 13.7445Z" fill="#E3FE0F"/>
<path d="M8.58761 0.409733C8.30401 0.393751 8.14461 0.56465 7.92458 0.716224C8.0745 0.833911 8.24068 0.936748 8.39675 1.04639L9.61986 1.88416L12.7455 4.01281L20.5931 9.34412L23.0978 11.0236L23.7472 11.4651C24.0203 11.6474 24.2914 11.8254 24.5236 12.061C24.9888 12.5331 25.389 13.1492 25.5204 13.8115C25.5586 14.0039 25.5553 14.1947 25.5557 14.3897L25.5566 15.0927L25.5571 17.3601L25.558 26.0561L25.7256 25.9442C25.9693 25.7719 26.1471 25.5109 26.197 25.2111C26.227 25.031 26.2097 24.8343 26.2091 24.6516L26.211 23.7851L26.2063 20.2103L26.2038 15.6461L26.203 14.2933C26.2028 14.0505 26.2188 13.792 26.1893 13.5516C26.125 13.0281 25.924 12.5296 25.6187 12.1024C25.4866 11.9174 25.32 11.709 25.1405 11.5675C24.8775 11.3601 24.5785 11.1803 24.3006 10.9928L22.8885 10.0349L18.8252 7.27504L11.6051 2.37065L9.92884 1.22846L8.9468 0.552579C8.82911 0.476453 8.72677 0.431773 8.58761 0.409733Z" fill="#E3FE0F"/>
<path d="M3.95774 3.43691C3.86672 3.42184 3.6602 3.60554 3.57917 3.66459C3.76389 3.69396 3.95686 3.74443 4.11705 3.84538L4.66879 4.23093L5.3494 4.69197L8.34742 6.73093L9.70094 7.63387L15.0495 11.2724L18.6795 13.7452C19.0848 14.0312 19.55 14.2859 19.903 14.6364C20.4215 15.1513 20.8253 15.8127 20.9805 16.5361C21.0376 16.8023 21.0382 17.0663 21.0385 17.3369L21.04 18.0724L21.0432 20.2076L21.0381 29.0535L22.5321 28.0321L22.9133 27.7675L22.911 15.1395L21.6728 15.917L21.4015 16.0904C21.3511 16.123 21.2906 16.1712 21.2309 16.1826C21.1563 16.1967 21.0856 16.1472 21.0475 16.086C20.983 15.9821 20.9587 15.813 20.9152 15.6946C20.8249 15.449 20.7026 15.2166 20.5598 14.9985C20.4053 14.7626 20.2163 14.5396 20.0003 14.3586C19.8317 14.2173 19.6452 14.0951 19.4644 13.9706L18.6962 13.4411L16.0229 11.6107L11.2453 8.36868L8.14604 6.26192L5.46633 4.44921L4.42062 3.74923L3.95774 3.43691Z" fill="#E3FE0F"/>
<path d="M5.73354 2.21716L4.31455 3.15896L5.67337 4.07927L7.98594 5.6478L16.4432 11.3938L19.1732 13.2607L19.8214 13.708C19.9744 13.8132 20.1353 13.9165 20.2729 14.0419C20.6041 14.3438 20.8882 14.7127 21.0985 15.1106C21.1502 15.2085 21.1955 15.3095 21.2336 15.4136C21.2573 15.4781 21.2799 15.5908 21.3279 15.6386L21.3644 15.6207L22.8335 14.7005C22.6513 14.1383 22.3224 13.6095 21.8797 13.2208C21.6911 13.0552 21.4583 12.9213 21.2502 12.781L20.2013 12.0635L16.1969 9.32914L12.5619 6.84411L9.3387 4.66422L5.73354 2.21716Z" fill="#E3FE0F"/>
<path d="M7.55674 0.984619C7.33619 1.10281 7.13117 1.26284 6.92422 1.40383L6.12056 1.95423L8.04502 3.27089L10.14 4.69312L17.5581 9.74743L20.6202 11.8457L21.6302 12.5355C21.8225 12.6686 22.0287 12.7988 22.2032 12.955C22.6532 13.3575 22.9611 13.891 23.1852 14.4488L23.3463 14.3498C23.5003 14.2562 24.9008 13.3982 24.916 13.3417C24.7193 12.9075 24.4251 12.5072 24.0598 12.2031C23.8209 12.0042 23.5498 11.8395 23.2924 11.6661L22.0484 10.8286L18.6174 8.50596L10.9855 3.33187L8.76649 1.81802L7.55674 0.984619Z" fill="#E3FE0F"/>
<path d="M3.43904 4.03749C3.3252 4.02465 3.20849 4.0235 3.09633 4.05011C2.985 4.07657 2.89529 4.11534 2.83579 4.21772C2.81142 4.25965 2.80099 4.30381 2.79573 4.35183C2.77457 4.54471 2.78888 4.75462 2.78867 4.94893L2.78885 6.17381L2.78879 8.06008L2.78864 8.39284C2.78864 8.41902 2.78047 8.49067 2.78861 8.51275C2.80359 8.55357 7.42562 11.5864 7.84474 11.8993C7.96115 11.9862 8.06682 12.0875 8.16861 12.1914C8.63329 12.6652 9.01077 13.2964 9.16368 13.9497C9.26122 14.3663 9.26248 14.8212 9.03275 15.1949C8.96258 15.309 8.87626 15.419 8.77508 15.5065C8.58984 15.6666 8.35155 15.7951 8.14718 15.9307L7.68828 16.2461C7.57423 16.3251 7.43898 16.4298 7.30129 16.4586C7.19476 16.4809 7.07102 16.4721 6.97198 16.4245C6.83781 16.36 6.70935 16.2508 6.58674 16.165L5.96884 15.7433L2.7643 13.5635L2.76387 14.9748C2.76268 15.3119 2.74124 15.6659 2.80762 15.9976C2.91645 16.5417 3.22142 17.0269 3.61951 17.4013C3.78676 17.5585 3.97842 17.6797 4.1676 17.8074L4.72618 18.1918L6.80597 19.6093L14.282 24.6846L17.9054 27.1461L18.8683 27.7984C19.0876 27.9512 19.3162 28.1433 19.5539 28.2629C19.9157 28.445 20.2506 28.4115 20.6201 28.2884L20.6291 26.0175L20.6276 21.2153L20.6298 18.3861L20.6315 17.4408C20.6315 17.2528 20.6413 17.0579 20.6181 16.8714C20.5573 16.3831 20.3709 15.9346 20.1051 15.5258C19.9136 15.2315 19.6803 14.9652 19.4011 14.7532L18.5166 14.1405L16.4572 12.7332L10.5766 8.74428L5.76342 5.484L4.54685 4.65776C4.34091 4.51456 4.13809 4.34894 3.92592 4.21772C3.77606 4.12504 3.60963 4.07312 3.43904 4.03749Z" fill="#E3FE0F"/>
</svg>
