<svg width="29" height="30" viewBox="0 0 29 30" fill="none" xmlns="http://www.w3.org/2000/svg">
<path d="M16.2801 0C16.4649 0.139355 16.6887 0.24391 16.8872 0.362999L18.4089 1.26521L24.9075 5.13381L27.2442 6.54261L28.0367 7.02502C28.1868 7.1159 28.3499 7.20046 28.4925 7.3027C28.5237 7.32502 28.5502 7.3522 28.5665 7.38793C28.5835 7.42484 28.588 7.46106 28.589 7.50162L28.5949 9.23965L28.5916 13.7241L28.5986 20.4791L28.5985 21.856L28.5986 22.1979C28.5988 22.2602 28.6065 22.3406 28.5841 22.3995C28.5525 22.4823 28.492 22.5373 28.4189 22.5804L25.4008 24.2558L19.2306 27.6551L15.9786 29.4404L15.336 29.7934C15.2126 29.8627 15.0856 29.9448 14.956 30L13.8547 29.3377L10.1 27.0808L4.99151 24.0437L2.17142 22.3621L1.36204 21.8845C1.2536 21.821 1.13876 21.7659 1.03344 21.6972C0.984468 21.6653 0.938312 21.6222 0.910158 21.5695C0.839441 21.4368 0.876263 20.9792 0.876424 20.8142L0.876564 20.686L0.876062 18.5673L0.875133 18.133C0.875033 18.0934 0.864434 18.0221 0.874746 17.9877C0.896333 17.9157 0.970734 17.8347 1.01746 17.7766L1.28426 17.4475L2.10834 16.4293L3.30059 14.9481L3.64843 14.5244C3.68753 14.479 3.79442 14.3841 3.81485 14.3328C3.83041 14.2938 3.81482 14.1564 3.81479 14.1093L3.81464 13.2456L3.81516 8.23848L3.81765 7.37433C3.81835 7.24861 3.7999 7.07107 3.83598 6.95116C3.85227 6.89707 3.89891 6.85639 3.94425 6.82836L5.323 6.05613L8.4033 4.35555L12.7614 1.94747L16.2801 0Z" fill="#17161E"/>
<path d="M16.2555 0.525757L27.9547 7.50311L27.1635 7.93579C27.0164 7.87578 26.8791 7.77627 26.7438 7.69211L26.0717 7.28137L22.9204 5.38991L18.1138 2.52434L16.3816 1.50334L15.4724 0.95563L16.2555 0.525757Z" fill="white"/>
<path d="M1.32935 18.4664L14.777 26.5195L14.778 29.3662L1.331 21.32L1.32935 18.4664Z" fill="white"/>
<path d="M6.20408 6.08606C6.21948 6.0833 6.23489 6.07511 6.25029 6.07781C6.26512 6.08041 6.30504 6.10936 6.31974 6.11793L6.55323 6.25714L7.90949 7.08277L14.4405 10.9789L17.3679 12.7305L17.365 22.2711L4.68929 14.6507L4.25537 14.3895L4.26049 13.4702C4.3102 13.4818 4.35785 13.5177 4.40185 13.5437L4.68022 13.7086L6.3195 14.699L9.75382 16.7666L14.1587 19.3826L15.6467 20.2997C15.6739 20.316 15.7001 20.3261 15.7319 20.3224C15.7973 20.3147 15.8667 20.2724 15.905 20.2171C15.9216 20.1931 15.9312 20.167 15.9362 20.1381C15.9677 19.9587 15.9409 19.7302 15.9396 19.5451L15.9349 18.2696L15.9408 15.2272L15.9452 14.3775C15.9457 14.2533 15.963 14.0964 15.9382 13.9756C15.9252 13.9124 15.8867 13.8595 15.8354 13.8237C15.7229 13.7454 15.5918 13.6844 15.4726 13.6168L14.8489 13.2557L13.302 12.3323L7.51765 8.85121L5.6495 7.71953L4.50753 7.01817L6.20408 6.08606Z" fill="white"/>
<path d="M4.26478 7.41541L15.4925 14.1647L15.4881 19.6593L4.25684 12.9092L4.26478 7.41541Z" fill="white"/>
<path d="M4.01217 14.7925L17.4192 22.8449L14.908 26.0384L14.8636 26.0347L1.42627 17.9972L4.01217 14.7925Z" fill="white"/>
<path d="M4.65158 16.5705C4.68221 16.563 4.71214 16.5618 4.74325 16.5666C4.86479 16.5854 5.0324 16.7198 5.13893 16.7848L5.94804 17.2786L9.46752 19.3897L13.7656 21.9341L15.2622 22.8182C15.2967 22.8397 15.3296 22.8639 15.351 22.9C15.3779 22.9453 15.3803 23.052 15.3624 23.1007C15.3204 23.2147 14.773 23.8709 14.661 23.9333C14.6235 23.9396 14.5846 23.9422 14.5468 23.9375C14.5015 23.9319 14.4585 23.9052 14.4195 23.8821L11.6882 22.2258L7.77252 19.8908L5.21715 18.3608L4.08093 17.6896C4.04174 17.6652 4.00484 17.6342 3.97823 17.5954C3.92876 17.5231 3.94346 17.4439 3.95488 17.3621C4.06683 17.1954 4.21242 17.0425 4.3403 16.8883C4.41946 16.7928 4.53445 16.6106 4.65158 16.5705Z" fill="#17161E"/>
<path d="M8.27 19.2181L10.9501 20.808L10.7065 21.095L8.02856 19.4981L8.27 19.2181Z" fill="white"/>
<path d="M4.77412 17.1287L7.88441 18.9804C7.81289 19.085 7.71768 19.1792 7.6342 19.2741L4.51733 17.3975L4.77412 17.1287Z" fill="white"/>
<path d="M11.3479 21.0291L14.8098 23.0926L14.5593 23.3665L14.5312 23.3849C14.4521 23.3719 14.3325 23.277 14.2612 23.2341L13.501 22.7725L12.2488 22.0171L11.1118 21.3264C11.175 21.2191 11.268 21.1239 11.3479 21.0291Z" fill="white"/>
<path d="M28.1252 7.92236L28.1445 7.92462C28.1753 7.98141 28.1604 20.7185 28.1566 22.1979L15.2545 29.3172L15.2453 29.3111C15.2448 29.3105 15.2265 29.2851 15.226 29.2835C15.2151 29.246 15.2233 29.1662 15.2225 29.1242L15.2195 28.6419L15.2276 26.3446L17.3729 23.6255L17.7786 23.1119C17.8285 23.047 17.8748 22.9464 17.9364 22.898C18.0106 22.8399 18.1115 22.7958 18.1946 22.7507L18.6812 22.4864L20.1066 21.6977L25.439 18.7693L26.6938 18.079L27.0701 17.8704C27.147 17.8276 27.2334 17.7909 27.297 17.7277C27.3415 17.6836 27.377 17.6241 27.3803 17.5592C27.3964 17.2496 27.3776 16.9288 27.3775 16.618L27.3778 14.6015L27.3797 8.32259L28.1252 7.92236Z" fill="white"/>
<path d="M26.401 8.04811L26.4364 8.03882C26.5008 8.05649 26.5613 8.10066 26.6188 8.1349L26.9359 8.33163L26.9276 17.4113L18.1613 22.2485L17.8054 22.4292L17.804 12.7058L26.401 8.04811Z" fill="white"/>
<path d="M26.0954 9.16235C26.1154 9.16424 26.1026 9.16239 26.1332 9.17092L26.1452 16.8795L18.6647 20.9899L18.6427 20.9979L18.6267 20.9808L18.6313 15.5955L18.6297 13.9543C18.6291 13.7113 18.603 13.4399 18.6314 13.2L26.0954 9.16235Z" fill="#17161E"/>
<path d="M15.0046 1.2251C15.1126 1.27389 15.2186 1.34734 15.3219 1.40746L16.0081 1.80976L18.8042 3.46287L23.644 6.35571L24.9091 7.11291L25.9839 7.74976L17.6554 12.2719L17.5533 12.322L6.69409 5.80534L15.0046 1.2251Z" fill="white"/>
</svg>
