<svg width="36" height="30" viewBox="0 0 36 30" fill="none" xmlns="http://www.w3.org/2000/svg">
<path d="M12.0713 19.0279C12.0713 22.3664 9.36907 25.0727 6.03567 25.0727C2.70226 25.0727 0 22.3664 0 19.0279C0 15.6895 2.70226 12.9832 6.03567 12.9832C9.36907 12.9832 12.0713 15.6895 12.0713 19.0279Z" fill="#E3FE0F" fill-opacity="0.3"/>
<path d="M11.0063 19.0279C11.0063 21.7772 8.78089 24.0059 6.03573 24.0059C3.29058 24.0059 1.06519 21.7772 1.06519 19.0279C1.06519 16.2786 3.29058 14.0498 6.03573 14.0498C8.78089 14.0498 11.0063 16.2786 11.0063 19.0279Z" fill="#E3FE0F" fill-opacity="0.5"/>
<path d="M9.94099 19.0279C9.94099 21.1881 8.19247 22.9392 6.03556 22.9392C3.87865 22.9392 2.13013 21.1881 2.13013 19.0279C2.13013 16.8677 3.87865 15.1166 6.03556 15.1166C8.19247 15.1166 9.94099 16.8677 9.94099 19.0279Z" fill="#17161E"/>
<path d="M28.3996 27.5374C28.3996 28.8975 27.2987 30.0001 25.9407 30.0001C24.5826 30.0001 23.4817 28.8975 23.4817 27.5374C23.4817 26.1773 24.5826 25.0747 25.9407 25.0747C27.2987 25.0747 28.3996 26.1773 28.3996 27.5374Z" fill="#E3FE0F" fill-opacity="0.3"/>
<path d="M27.9656 27.5374C27.9656 28.6575 27.059 29.5655 25.9406 29.5655C24.8222 29.5655 23.9155 28.6575 23.9155 27.5374C23.9155 26.4173 24.8222 25.5093 25.9406 25.5093C27.059 25.5093 27.9656 26.4173 27.9656 27.5374Z" fill="#E3FE0F" fill-opacity="0.5"/>
<path d="M27.5316 27.5374C27.5316 28.4174 26.8192 29.1309 25.9405 29.1309C25.0617 29.1309 24.3494 28.4174 24.3494 27.5374C24.3494 26.6573 25.0617 25.9438 25.9405 25.9438C26.8192 25.9438 27.5316 26.6573 27.5316 27.5374Z" fill="#17161E"/>
<path d="M36 7.83575C36 9.69044 34.4987 11.194 32.6468 11.194C30.795 11.194 29.2937 9.69044 29.2937 7.83575C29.2937 5.98106 30.795 4.47754 32.6468 4.47754C34.4987 4.47754 36 5.98106 36 7.83575Z" fill="#E3FE0F" fill-opacity="0.3"/>
<path d="M35.4081 7.83577C35.4081 9.36316 34.1718 10.6014 32.6467 10.6014C31.1216 10.6014 29.8853 9.36316 29.8853 7.83577C29.8853 6.30838 31.1216 5.07019 32.6467 5.07019C34.1718 5.07019 35.4081 6.30838 35.4081 7.83577Z" fill="#E3FE0F" fill-opacity="0.5"/>
<path d="M34.8167 7.8358C34.8167 9.03589 33.8453 10.0088 32.647 10.0088C31.4487 10.0088 30.4773 9.03589 30.4773 7.8358C30.4773 6.63571 31.4487 5.66284 32.647 5.66284C33.8453 5.66284 34.8167 6.63571 34.8167 7.8358Z" fill="#17161E"/>
<path d="M23.8485 11.9422C23.8485 13.5496 22.5474 14.8526 20.9424 14.8526C19.3375 14.8526 18.0364 13.5496 18.0364 11.9422C18.0364 10.3348 19.3375 9.03174 20.9424 9.03174C22.5474 9.03174 23.8485 10.3348 23.8485 11.9422Z" fill="#E3FE0F" fill-opacity="0.3"/>
<path d="M23.3355 11.9422C23.3355 13.266 22.264 14.3391 20.9423 14.3391C19.6206 14.3391 18.5491 13.266 18.5491 11.9422C18.5491 10.6185 19.6206 9.54541 20.9423 9.54541C22.264 9.54541 23.3355 10.6185 23.3355 11.9422Z" fill="#E3FE0F" fill-opacity="0.5"/>
<path d="M22.8226 11.9422C22.8226 12.9823 21.9807 13.8254 20.9422 13.8254C19.9036 13.8254 19.0618 12.9823 19.0618 11.9422C19.0618 10.9021 19.9036 10.059 20.9422 10.059C21.9807 10.059 22.8226 10.9021 22.8226 11.9422Z" fill="#17161E"/>
<path d="M15.4333 2.23845C15.4333 3.47471 14.4326 4.4769 13.1982 4.4769C11.9638 4.4769 10.9631 3.47471 10.9631 2.23845C10.9631 1.00219 11.9638 0 13.1982 0C14.4326 0 15.4333 1.00219 15.4333 2.23845Z" fill="#E3FE0F" fill-opacity="0.3"/>
<path d="M15.039 2.23833C15.039 3.25643 14.2149 4.08176 13.1983 4.08176C12.1818 4.08176 11.3577 3.25643 11.3577 2.23833C11.3577 1.22023 12.1818 0.394897 13.1983 0.394897C14.2149 0.394897 15.039 1.22023 15.039 2.23833Z" fill="#E3FE0F" fill-opacity="0.5"/>
<path d="M14.6446 2.23845C14.6446 3.03838 13.9972 3.68686 13.1984 3.68686C12.3997 3.68686 11.7522 3.03838 11.7522 2.23845C11.7522 1.43851 12.3997 0.790039 13.1984 0.790039C13.9972 0.790039 14.6446 1.43851 14.6446 2.23845Z" fill="#17161E"/>
</svg>
